# xmcd
#
# Track frame offsets:
#	150
#	20627
#	36827
#	53697
#	72871
#	92323
#	104779
#	121363
#	138537
#	155677
#	171428
#	188116
#	208914
#	225966
#	242948
#	264781
#
# Disc length: 3731 seconds
#
# Revision: 0
# Processed by: cddbd v1.5.2PL0 Copyright (c) Steve Scherf et al.
# Submitted via: audiograbber 1.81.02
#
DISCID=e00e9110
DTITLE=Terzis -  Xatzigiannis - New Release
DYEAR=2009
DGENRE=
TTITLE0=Exw Mia Agapi
TTITLE1=Paliokairos
TTITLE2=Arxipelagos
TTITLE3=O Dikos Mou O Dromos
TTITLE4=Feggari Mou Xlwmo
TTITLE5=Eimai Tou Voria O Gyios
TTITLE6=Ki Exei Ena Feggari
TTITLE7=Ti Na Prwtothimithw
TTITLE8=Poios Tolmaei
TTITLE9=Esy
TTITLE10=Ase Me Pia
TTITLE11=Moiazoyn Oi Wres
TTITLE12=An M' Agapas
TTITLE13=Na Me Dhs
TTITLE14=Mesa Sto Dasos Sou
TTITLE15=Afta Pou Thalega Gia Sena
EXTD=
EXTT0=
EXTT1=
EXTT2=
EXTT3=
EXTT4=
EXTT5=
EXTT6=
EXTT7=
EXTT8=
EXTT9=
EXTT10=
EXTT11=
EXTT12=
EXTT13=
EXTT14=
EXTT15=
PLAYORDER=
